<svg width="77" height="109" viewBox="0 0 77 109" fill="none" xmlns="http://www.w3.org/2000/svg">
<path d="M0.3125 101.812C5.10417 101.396 8 100.688 9 99.6875C10 98.6458 10.6042 97.5208 10.8125 96.3125C11.0208 95.0625 11.125 93.4375 11.125 91.4375V14.8125C11.125 10.8125 10.375 8.25 8.875 7.125C7.875 6.375 5.02083 5.77083 0.3125 5.3125V0.125H34.625V5.3125C29.9583 5.77083 27.1667 6.33333 26.25 7C24.6667 8.125 23.875 10.7292 23.875 14.8125V37.9375C27.7083 33.8542 32.8333 31.1458 39.25 29.8125C41.2917 29.3958 43.6458 29.1875 46.3125 29.1875C49.0208 29.1875 51.8125 29.7083 54.6875 30.75C57.5625 31.75 60.1667 33.1458 62.5 34.9375C64.8333 36.7292 66.8958 38.8542 68.6875 41.3125C70.4792 43.7292 71.9583 46.375 73.125 49.25C75.5833 55.2083 76.8125 61.5208 76.8125 68.1875C76.8125 79.0208 73.8333 88.3333 67.875 96.125C63.7917 101.417 58.5833 105.125 52.25 107.25C49.0417 108.333 45.9583 108.875 43 108.875C39.1667 108.875 35.1667 108.667 31 108.25C23.2083 107.417 18.3958 107 16.5625 107H0.3125V101.812ZM23.875 88.6875C23.875 92.6458 25 95.6667 27.25 97.75C30.1667 100.333 35.0833 101.625 42 101.625C48.9167 101.625 54.2083 98.25 57.875 91.5C61.125 85.6667 62.75 77.8958 62.75 68.1875C62.75 54.1042 59.625 44.5 53.375 39.375C51.0417 37.4583 48.3333 36.5 45.25 36.5C42.1667 36.5 39.375 36.9583 36.875 37.875C34.375 38.7917 32.1667 40.0417 30.25 41.625C26 45.0833 23.875 49.1875 23.875 53.9375V88.6875Z" fill="#78776E"/>
</svg>
