<svg width="127" height="36" viewBox="0 0 127 36" fill="none" xmlns="http://www.w3.org/2000/svg">
<path class ="logo" d="M4.90625 12.9219C4.90625 13.2448 4.97917 13.4062 5.125 13.4062C5.28125 13.4062 5.94792 13.0677 7.125 12.3906C8.5 11.8073 9.54688 11.5156 10.2656 11.5156C10.9844 11.5156 11.6719 11.724 12.3281 12.1406C12.9844 12.5573 13.5417 13.1042 14 13.7812C14.9688 15.1771 15.4531 16.8698 15.4531 18.8594C15.4531 20.849 14.7604 22.6094 13.375 24.1406C12 25.6615 10.1823 26.4219 7.92188 26.4219C6.45312 26.4219 5.09896 26.2448 3.85938 25.8906C3.49479 25.7865 3.18229 25.7031 2.92188 25.6406C2.67188 25.5781 2.53125 25.5156 2.5 25.4531C2.47917 25.3802 2.46875 25.2969 2.46875 25.2031V4.14062C2.46875 3.70312 2.22917 3.40104 1.75 3.23438C1.54167 3.16146 1.31771 3.10417 1.07812 3.0625C0.838542 3.01042 0.645833 2.96354 0.5 2.92188C0.364583 2.88021 0.276042 2.84375 0.234375 2.8125C0.203125 2.77083 0.1875 2.69271 0.1875 2.57812C0.1875 2.45312 0.265625 2.34896 0.421875 2.26562L4.40625 0.390625C4.53125 0.328125 4.60938 0.296875 4.64062 0.296875C4.81771 0.296875 4.90625 0.421875 4.90625 0.671875V12.9219ZM8.21875 13.4219C7.29167 13.4219 6.25 13.7552 5.09375 14.4219C4.96875 14.4948 4.90625 14.6198 4.90625 14.7969V22.1875C5.01042 23.1354 5.42188 23.875 6.14062 24.4062C6.85938 24.9375 7.64583 25.2031 8.5 25.2031C10 25.2031 11.1562 24.6094 11.9688 23.4219C12.7917 22.2344 13.2031 20.8802 13.2031 19.3594C13.2031 17.8385 12.7865 16.4688 11.9531 15.25C11.1198 14.0312 9.875 13.4219 8.21875 13.4219ZM18.2812 26C18.1771 25.9792 18.125 25.9062 18.125 25.7812C18.125 25.5938 18.3698 25.4688 18.8594 25.4062C19.9844 25.2396 20.5469 24.6458 20.5469 23.625V15.3594C20.5469 14.9219 20.3073 14.6198 19.8281 14.4531C19.6198 14.3802 19.3958 14.3229 19.1562 14.2812C18.9167 14.2292 18.724 14.1823 18.5781 14.1406C18.4427 14.099 18.3542 14.0625 18.3125 14.0312C18.2812 13.9896 18.2656 13.9115 18.2656 13.7969C18.2656 13.6719 18.3438 13.5677 18.5 13.4844L22.4844 11.6094C22.6094 11.5469 22.6875 11.5156 22.7188 11.5156C22.8958 11.5156 22.9844 11.6406 22.9844 11.8906V23.625C22.9844 24.6458 23.5469 25.2396 24.6719 25.4062C25.1615 25.4688 25.4062 25.5781 25.4062 25.7344C25.4062 25.8906 25.3542 25.9792 25.25 26H18.2812ZM21.5312 7.125C21.1042 7.125 20.724 6.98958 20.3906 6.71875C20.0677 6.44792 19.9062 6.07292 19.9062 5.59375C19.9062 5.10417 20.0625 4.71875 20.375 4.4375C20.6875 4.15625 21.0573 4.01562 21.4844 4.01562C21.9219 4.01562 22.2865 4.18229 22.5781 4.51562C22.8802 4.84896 23.0312 5.20833 23.0312 5.59375C23.0312 5.97917 22.8906 6.33333 22.6094 6.65625C22.3281 6.96875 21.9688 7.125 21.5312 7.125ZM38.75 21.0781L38.7188 17.7812C38.7188 16.4375 38.6042 15.4948 38.375 14.9531C38.1458 14.4115 37.8542 14.0052 37.5 13.7344C37.1458 13.4531 36.6667 13.3125 36.0625 13.3125C35.4688 13.3125 34.2031 13.7812 32.2656 14.7188C32.0052 14.875 31.8698 15.0208 31.8594 15.1562V23.5625C31.8594 24.6146 32.4219 25.2188 33.5469 25.375C34.0365 25.4479 34.2812 25.5677 34.2812 25.7344C34.2812 25.8906 34.2292 25.9792 34.125 26H27.1562C27.0521 25.9792 27 25.9062 27 25.7812C27 25.5833 27.2448 25.4479 27.7344 25.375C28.8594 25.2188 29.4219 24.6146 29.4219 23.5625V14.5938C29.4219 14.1562 29.1823 13.8542 28.7031 13.6875C28.4948 13.6146 28.2708 13.5573 28.0312 13.5156C27.7917 13.4635 27.599 13.4167 27.4531 13.375C27.3177 13.3333 27.2292 13.2969 27.1875 13.2656C27.1562 13.224 27.1406 13.1458 27.1406 13.0312C27.1406 12.9062 27.2188 12.8021 27.375 12.7188L31.3594 10.8438C31.4844 10.7812 31.5625 10.75 31.5938 10.75C31.7708 10.75 31.8594 10.875 31.8594 11.125V13.5625C31.8906 13.6667 31.9323 13.7188 31.9844 13.7188C32.0469 13.7188 32.2708 13.625 32.6562 13.4375C33.5521 12.9896 34.4531 12.5573 35.3594 12.1406C36.2656 11.724 37.0156 11.5156 37.6094 11.5156C40.0156 11.5156 41.2188 13.7083 41.2188 18.0938L41.0781 22.6562V23.5625C41.0781 24.375 41.4844 24.9062 42.2969 25.1562C42.6406 25.2708 42.9688 25.3542 43.2812 25.4062C43.6042 25.4479 43.8125 25.4896 43.9062 25.5312C44.0104 25.5729 44.0625 25.6562 44.0625 25.7812C44.0625 25.9062 44.0104 25.9792 43.9062 26H36.375C36.2708 25.9792 36.2188 25.9062 36.2188 25.7812C36.2188 25.5833 36.4635 25.4479 36.9531 25.375C38.0677 25.2188 38.625 24.5729 38.625 23.4375C38.7083 22.9167 38.75 22.1302 38.75 21.0781ZM53.0469 15.3125C53.0469 15.5417 52.9583 15.6562 52.7812 15.6562C52.6146 15.6562 52.4844 15.5312 52.3906 15.2812C52.1406 14.5938 51.7656 13.9844 51.2656 13.4531C50.776 12.9219 50.1667 12.6562 49.4375 12.6562C48.4792 12.6562 47.8333 13.1354 47.5 14.0938C47.3958 14.4167 47.3438 14.75 47.3438 15.0938C47.3438 15.4375 47.5625 15.8229 48 16.25C48.4375 16.6667 49.1562 17.1667 50.1562 17.75C51.1562 18.3333 51.8854 18.8281 52.3438 19.2344C53.3854 20.1615 53.9062 21.2344 53.9062 22.4531C53.9062 23.6719 53.4583 24.6406 52.5625 25.3594C51.6667 26.0677 50.625 26.4219 49.4375 26.4219C48.8021 26.4219 48.224 26.3333 47.7031 26.1562C47.1927 25.9896 46.8958 25.9062 46.8125 25.9062C46.7396 25.9062 46.6146 25.9896 46.4375 26.1562C46.2708 26.3333 46.1354 26.4219 46.0312 26.4219H45.7656C45.7031 26.4219 45.625 25.8594 45.5312 24.7344C45.4375 23.6094 45.3906 22.9427 45.3906 22.7344C45.3906 22.526 45.4062 22.4115 45.4375 22.3906C45.4792 22.3698 45.5417 22.3594 45.625 22.3594C45.7083 22.3594 45.776 22.3854 45.8281 22.4375C45.8906 22.4896 45.9427 22.5573 45.9844 22.6406C46.026 22.7135 46.0573 22.7917 46.0781 22.875C46.1094 22.9583 46.1771 23.1146 46.2812 23.3438C46.9896 24.8542 48.0833 25.6094 49.5625 25.6094C50.2188 25.6094 50.7448 25.3698 51.1406 24.8906C51.5365 24.401 51.7344 23.8594 51.7344 23.2656C51.7344 22.6719 51.5781 22.1719 51.2656 21.7656C50.9531 21.3594 50.5625 20.9896 50.0938 20.6562C49.6354 20.3229 49.1354 20 48.5938 19.6875C46.4896 18.4583 45.4375 17.099 45.4375 15.6094C45.4375 14.4948 45.9167 13.5365 46.875 12.7344C47.8333 11.9219 48.8177 11.5156 49.8281 11.5156C50.8385 11.5156 51.5833 11.625 52.0625 11.8438C52.5521 12.0625 52.8385 12.25 52.9219 12.4062C53.0052 12.5521 53.0469 13.0417 53.0469 13.875V15.3125ZM76.7812 21.0781L76.75 17.7812C76.75 16.4375 76.6354 15.4948 76.4062 14.9531C76.1771 14.4115 75.8854 14.0052 75.5312 13.7344C75.1771 13.4531 74.6979 13.3125 74.0938 13.3125C73.5 13.3125 72.2344 13.7812 70.2969 14.7188C70.0365 14.875 69.901 15.0208 69.8906 15.1562V23.5625C69.8906 24.6146 70.4531 25.2188 71.5781 25.375C72.0677 25.4479 72.3125 25.5677 72.3125 25.7344C72.3125 25.8906 72.2604 25.9792 72.1562 26H65.1875C65.0833 25.9792 65.0312 25.9062 65.0312 25.7812C65.0312 25.5833 65.276 25.4479 65.7656 25.375C66.8906 25.2188 67.4531 24.6146 67.4531 23.5625V15.7812C67.4531 14.1458 66.4427 13.3281 64.4219 13.3281C63.6823 13.3281 62.6562 13.7656 61.3438 14.6406C61.0104 14.8594 60.7656 15.0625 60.6094 15.25V23.5625C60.6094 24.6146 61.1719 25.2188 62.2969 25.375C62.7865 25.4479 63.0312 25.5677 63.0312 25.7344C63.0312 25.8906 62.9792 25.9792 62.875 26H55.9062C55.8021 25.9792 55.75 25.9062 55.75 25.7812C55.75 25.5833 55.9948 25.4479 56.4844 25.375C57.6094 25.2188 58.1719 24.625 58.1719 23.5938V14.5938C58.1719 14.1562 57.9323 13.8542 57.4531 13.6875C57.2448 13.6146 57.0208 13.5573 56.7812 13.5156C56.5417 13.4635 56.349 13.4167 56.2031 13.375C56.0677 13.3333 55.9792 13.2969 55.9375 13.2656C55.9062 13.224 55.8906 13.1458 55.8906 13.0312C55.8906 12.9062 55.9688 12.8021 56.125 12.7188L60.1094 10.8438C60.2344 10.7812 60.3125 10.75 60.3438 10.75C60.5208 10.75 60.6094 10.875 60.6094 11.125V13.7188C60.6198 13.7812 60.6562 13.8125 60.7188 13.8125C60.7917 13.8125 60.9635 13.7396 61.2344 13.5938C61.5156 13.4479 61.8802 13.2448 62.3281 12.9844C62.776 12.7135 63.3646 12.401 64.0938 12.0469C64.8333 11.6927 65.6146 11.5156 66.4375 11.5156C67.7604 11.5156 68.7083 12.0833 69.2812 13.2188C69.5 13.6771 69.6979 13.875 69.875 13.8125C70.0521 13.7396 70.3281 13.6094 70.7031 13.4219C71.5885 12.9844 72.4844 12.5573 73.3906 12.1406C74.2969 11.724 75.0469 11.5156 75.6406 11.5156C78.0469 11.5156 79.25 13.7083 79.25 18.0938L79.1094 22.6562V23.5625C79.1094 24.375 79.5156 24.9062 80.3281 25.1562C80.6719 25.2708 81 25.3542 81.3125 25.4062C81.6354 25.4479 81.8438 25.4896 81.9375 25.5312C82.0417 25.5729 82.0938 25.6562 82.0938 25.7812C82.0938 25.9062 82.0417 25.9792 81.9375 26H74.4062C74.3021 25.9792 74.25 25.9062 74.25 25.7812C74.25 25.5833 74.4948 25.4479 74.9844 25.375C76.099 25.2188 76.6562 24.5729 76.6562 23.4375C76.7396 22.9167 76.7812 22.1302 76.7812 21.0781ZM98.5 11.9375C98.6146 11.9688 98.6719 12.0417 98.6719 12.1562C98.6719 12.2708 98.6615 12.349 98.6406 12.3906C98.6198 12.4219 98.5677 12.4531 98.4844 12.4844C98.4115 12.5052 98.3021 12.526 98.1562 12.5469C98.0208 12.5677 97.8021 12.6094 97.5 12.6719C97.1979 12.724 96.9271 12.9323 96.6875 13.2969C96.4479 13.6615 96.1927 14.1667 95.9219 14.8125L88.5781 33.0156L87.5625 35.1719C87.3021 35.724 86.7552 36 85.9219 36C85.5573 36 85.2656 35.8802 85.0469 35.6406C84.8281 35.401 84.7188 35.1146 84.7188 34.7812C84.7188 34.4583 84.7969 34.2188 84.9531 34.0625C85.1198 33.9167 85.3125 33.7969 85.5312 33.7031C85.75 33.6094 85.974 33.5208 86.2031 33.4375C86.4427 33.3646 86.7083 33.1875 87 32.9062C87.2917 32.6354 87.4635 32.4323 87.5156 32.2969C89.2656 28.3802 90.1406 26.3333 90.1406 26.1562C90.1406 25.9792 90.0365 25.7604 89.8281 25.5L84.6719 14.7344C84.2865 13.6823 83.625 13.0052 82.6875 12.7031C82.6146 12.6823 82.526 12.6667 82.4219 12.6562C81.9844 12.6146 81.7656 12.4844 81.7656 12.2656C81.7656 12.0469 81.8906 11.9375 82.1406 11.9375H89.0938C89.1771 11.9375 89.2188 12.0208 89.2188 12.1875C89.2188 12.3438 89.1458 12.4531 89 12.5156C88.8542 12.5677 88.5312 12.5938 88.0312 12.5938C87.2292 12.5938 86.8281 12.9062 86.8281 13.5312L86.9688 13.9062L91.0156 22.5781C91.224 23.1094 91.4323 23.0938 91.6406 22.5312C91.6615 22.4792 91.7917 22.1406 92.0312 21.5156C93.4479 17.9219 94.2396 15.8438 94.4062 15.2812C94.5833 14.7188 94.6719 14.2969 94.6719 14.0156C94.6719 13.7344 94.5208 13.4375 94.2188 13.125C93.9271 12.8125 93.5208 12.6562 93 12.6562C92.4896 12.6562 92.2344 12.5052 92.2344 12.2031C92.2344 12.026 92.349 11.9375 92.5781 11.9375H98.5ZM103.953 13.9844C103.891 13.9844 103.859 14.0312 103.859 14.125V22.75C103.859 23.375 103.995 23.8646 104.266 24.2188C104.547 24.5729 104.901 24.75 105.328 24.75C105.755 24.75 106.125 24.6823 106.438 24.5469C106.76 24.401 107.036 24.2448 107.266 24.0781C107.505 23.9115 107.719 23.7604 107.906 23.625C108.094 23.4792 108.26 23.4062 108.406 23.4062C108.552 23.4062 108.625 23.4427 108.625 23.5156C108.625 23.7656 108.599 23.9271 108.547 24C107.297 25.6146 106.089 26.4219 104.922 26.4219C103.766 26.4219 102.891 26.0573 102.297 25.3281C101.714 24.5885 101.422 23.7083 101.422 22.6875V13.9844H100.25C99.9583 13.9844 99.8021 13.8906 99.7812 13.7031C99.7708 13.5156 99.8021 13.3958 99.875 13.3438C100.427 12.9896 101.188 12.3542 102.156 11.4375C102.26 11.3229 102.401 11.151 102.578 10.9219C102.755 10.6927 103.01 10.3802 103.344 9.98438C103.688 9.58854 103.948 9.39062 104.125 9.39062C104.302 9.39062 104.391 9.46354 104.391 9.60938C104.391 9.63021 104.214 10.3125 103.859 11.6562C103.859 11.8438 103.943 11.9427 104.109 11.9531H108.094C108.552 11.9531 108.781 12.599 108.781 13.8906C108.781 13.9531 108.74 13.9844 108.656 13.9844H103.953ZM114.516 13.9062C114.516 14.1562 114.552 14.2812 114.625 14.2812C114.698 14.2812 114.75 14.2656 114.781 14.2344C114.812 14.1927 115.031 13.9479 115.438 13.5C116.615 12.1875 117.807 11.5312 119.016 11.5312C120.599 11.5312 121.76 11.8854 122.5 12.5938C123.406 13.4896 123.859 14.9948 123.859 17.1094V23.625C123.859 24.6458 124.422 25.2396 125.547 25.4062C126.036 25.4688 126.281 25.5781 126.281 25.7344C126.281 25.8906 126.229 25.9792 126.125 26H119.156C119.052 25.9792 119 25.9062 119 25.7812C119 25.5938 119.245 25.4688 119.734 25.4062C120.859 25.2396 121.422 24.6458 121.422 23.625V17.2656C121.422 15.7344 121.312 14.7396 121.094 14.2812C120.677 13.3646 119.807 12.9062 118.484 12.9062C117.672 12.9062 116.807 13.2552 115.891 13.9531C114.974 14.6406 114.516 15.401 114.516 16.2344V23.625C114.516 24.6458 115.078 25.2396 116.203 25.4062C116.693 25.4688 116.938 25.5781 116.938 25.7344C116.938 25.8906 116.885 25.9792 116.781 26H109.812C109.708 25.9792 109.656 25.9062 109.656 25.7812C109.656 25.5938 109.901 25.4688 110.391 25.4062C111.516 25.2396 112.078 24.6458 112.078 23.625V4.14062C112.078 3.70312 111.839 3.40104 111.359 3.23438C111.151 3.16146 110.927 3.10417 110.688 3.0625C110.448 3.01042 110.255 2.96354 110.109 2.92188C109.974 2.88021 109.885 2.84375 109.844 2.8125C109.812 2.77083 109.797 2.69271 109.797 2.57812C109.797 2.45312 109.875 2.34896 110.031 2.26562L114.016 0.390625C114.141 0.328125 114.219 0.296875 114.25 0.296875C114.427 0.296875 114.516 0.421875 114.516 0.671875V13.9062Z" fill="#FCA8A8"/>
</svg>
