<?xml version="1.0" encoding="UTF-8"?>
<svg width="153px" height="52px" viewBox="0 0 153 52" version="1.1" xmlns="http://www.w3.org/2000/svg" xmlns:xlink="http://www.w3.org/1999/xlink">
    <title>logo</title>
    <g id="Page-1" stroke="none" stroke-width="1" fill="none" fill-rule="evenodd">
        <g id="logo" fill-rule="nonzero">
            <path d="M26.0978218,51.9356961 C11.7772277,51.9356961 0.120990099,40.3231683 0.120990099,26.0437624 C0.120990099,11.8364356 11.9059406,0.105544554 26.1364356,0.146624542 C40.4544554,0.187920792 52.0720792,11.8441584 52.0310003,26.1312871 C51.9882976,40.4152408 40.3818105,51.9641217 26.0978218,51.9356961 L26.0978218,51.9356961 Z M37.2572277,26.9833663 L37.1336634,26.9833663 C37.1336634,24.2237624 37.1336634,21.4641584 37.1336634,18.7045545 C37.1336634,18.0043564 37.0718812,17.3067327 36.3356436,16.990099 C35.6463715,16.6710783 34.8345495,16.7815986 34.2556436,17.2732673 C32.6393312,18.5126126 30.739901,19.3300665 28.7287129,19.6518812 C24.5609901,20.3623762 20.5811881,19.9324752 17.0235644,17.4431683 C16.310495,16.9437624 15.6489109,16.5962376 14.8174257,17.0235644 C13.9859406,17.4508911 13.8520792,18.2386139 13.8570881,19.0829703 C13.8829703,24.279538 13.9078548,29.4778218 13.9318812,34.6778218 C13.9318812,35.0948515 13.9318812,35.5118812 13.9653465,35.9263366 C13.985754,36.5979172 14.4544458,37.1721701 15.1083168,37.3267327 C15.736036,37.5395738 16.4301747,37.3548761 16.8691089,36.8582178 C17.3376238,36.3794059 17.3994059,35.7924752 17.3839604,35.1643564 C17.3479208,31.0893069 17.340198,27.0142574 17.2784158,22.9392079 C17.2784158,22.089703 17.4225743,21.9223762 18.290099,22.1952475 C23.0083818,23.7160861 28.0842926,23.7223871 32.8063366,22.2132673 C33.5477228,21.9815842 33.7356436,22.0639604 33.730495,22.8671287 C33.6970297,27.0708911 33.7073267,31.2746535 33.730495,35.4809901 C33.730495,36.9483168 34.9635644,37.8390099 36.1734653,37.2546535 C36.9843564,36.8633663 37.2726733,36.1605941 37.2675923,35.2750495 C37.2443564,32.5025743 37.2572277,29.7429703 37.2572277,26.9833663 Z" id="Shape" fill="#FE7720"></path>
            <path d="M62.9740594,21.9687129 C64.7065347,19.3944554 69.7237624,19.3944554 71.1910891,22.6380198 C71.4871287,22.6380198 71.5051485,22.3805941 71.6235644,22.2081188 C72.8753084,20.4525747 75.1074912,19.6912502 77.1710891,20.3160396 C79.0914851,20.8514851 80.3271287,22.3754455 80.4120792,24.5970297 C80.5073267,27.0322772 80.440396,29.4726733 80.4867327,31.910495 C80.4867327,32.5334653 80.1443564,32.4794059 79.7530693,32.4588119 C79.3617822,32.4382178 78.9087129,32.6312871 78.9215842,31.9079208 C78.960198,30.0158416 78.939604,28.1211881 78.9215842,26.2291089 C78.9233773,25.6840651 78.8967405,25.1392986 78.8417822,24.5970297 C78.6358416,22.7461386 77.4182178,21.5645545 75.649703,21.4770297 C73.5388119,21.3714851 72.1976238,22.3316832 71.8449505,24.3215842 C71.5051485,26.2265347 71.7625743,28.1623762 71.7007921,30.0827723 C71.6644899,30.5969838 71.6644899,31.1131152 71.7007921,31.6273267 C71.770297,32.2811881 71.590099,32.5231683 70.8821782,32.489703 C70.3106931,32.4639604 70.109901,32.3584158 70.1279208,31.7457426 C70.1656766,29.5318812 70.1656766,27.3180198 70.1279208,25.1041584 C70.0944554,23.2378218 69.149703,21.9867327 67.5716832,21.58 C65.1518812,20.9544554 63.0950495,22.3831683 62.999802,24.8673267 C62.909703,27.1429703 62.9354455,29.4237624 62.9714851,31.6994059 C62.9843564,32.3609901 62.760396,32.4716832 62.1580198,32.489703 C61.5067327,32.5051485 61.370297,32.2914851 61.3857426,31.6813861 C61.4132013,28.1855446 61.4132013,24.6888449 61.3857426,21.1912871 C61.3857426,20.5580198 61.4861386,20.3186139 62.2017822,20.3057426 C62.9920792,20.2928713 63.020396,20.6712871 62.9740594,21.240198 C62.9560396,21.4770297 62.9740594,21.7241584 62.9740594,21.9687129 Z" id="Path" fill="#070707"></path>
            <path d="M100.084554,21.8811881 C103.111881,19.2116832 106.185545,19.5051485 108.29901,22.7023762 C109.297822,21.0110891 110.765149,20.1281188 112.731881,20.1281188 C115.391089,20.1152475 117.350099,21.909505 117.437624,24.5687129 C117.517426,27.0039604 117.437624,29.4443564 117.491683,31.8821782 C117.507129,32.5720792 117.113267,32.4588119 116.706535,32.4613861 C116.299802,32.4639604 115.903366,32.5489109 115.913663,31.8667327 C115.949703,29.549901 115.952277,27.2330693 115.898218,24.9394059 C115.859604,23.2532673 114.981782,22.0819802 113.581386,21.6443564 C111.027723,20.8463366 108.852475,22.3445545 108.775248,25.0269307 C108.710891,27.2382178 108.734059,29.4546535 108.775248,31.6659406 C108.775248,32.2657426 108.66198,32.5 108.00297,32.4845545 C107.395446,32.4716832 107.189505,32.3481188 107.202376,31.6994059 C107.243564,29.549901 107.253861,27.400396 107.202376,25.2508911 C107.140594,22.7718812 105.755644,21.4229703 103.436238,21.4718812 C101.582772,21.510495 100.282772,22.6483168 100.089703,24.519802 C99.8477228,26.8546535 100.030495,29.199802 99.9918812,31.539802 C99.9918812,32.0546535 100.097426,32.5051485 99.250495,32.4975236 C98.460198,32.4975236 98.3932673,32.1910891 98.3984158,31.5423762 C98.4267327,28.1417822 98.3984158,24.7411881 98.3984158,21.3405941 C98.3984158,20.8257426 98.2388119,20.2954455 99.1552475,20.2954455 C99.9918812,20.2954455 100.025347,20.6661386 99.9815842,21.2736634 C99.9584158,21.4770297 99.8811881,21.7164356 100.084554,21.8811881 Z" id="Path" fill="#090909"></path>
            <path d="M93.509901,22.7023762 C93.5413024,22.2361056 93.5413024,21.7682508 93.509901,21.3019802 C93.3940594,20.4962376 93.6849505,20.2336634 94.4932673,20.3108911 C94.9437624,20.3546535 95.090495,20.4524752 95.087954,20.9132673 C95.069901,24.5661386 95.059604,28.2190099 95.087954,31.8744554 C95.087954,32.5669307 94.7146535,32.4691089 94.3156436,32.4588119 C93.9166337,32.4485149 93.4455446,32.6184158 93.5124752,31.8976238 C93.5665347,31.3364356 93.5124752,30.7649505 93.5124752,29.9566337 C92.2768317,31.7586139 90.7914851,32.690495 88.7732673,32.6750495 C87.2468024,32.7073482 85.7755129,32.1041009 84.7110891,31.009505 C82.2578218,28.5150495 82.2964356,23.9380198 84.7805941,21.6211881 C87.2647525,19.3043564 90.8017822,19.6930693 93.509901,22.7023762 Z M93.509901,26.4221782 C93.509901,24.1053465 92.2922772,22.269901 90.3358416,21.6623762 C89.2258236,21.2968003 88.0156964,21.3903931 86.975091,21.9223011 C85.9344855,22.4542091 85.1498604,23.3802387 84.7960396,24.4940594 C83.8821782,27.2819802 85.1718812,30.2809901 87.6431683,31.1124752 C90.6344554,32.1267327 93.5021782,29.8279208 93.509901,26.4221782 Z" id="Shape" fill="#070707"></path>
            <path d="M119.937151,26.3758416 C119.952673,22.6920792 122.454851,20.120396 126.022772,20.1255368 C129.549505,20.1255368 132.110891,22.7950495 132.082574,26.429901 C132.054257,30.0647525 129.369307,32.6930693 125.708713,32.6673267 C122.243762,32.6415842 119.921782,30.1188119 119.937151,26.3758416 Z M130.422178,26.3758416 C130.422178,23.2481188 128.313861,21.0960396 125.531089,21.3817822 C123.355842,21.6057426 121.927129,23.0447525 121.561584,25.4027723 C121.165149,27.910099 122.174257,30.2372277 124.025149,31.0661386 C124.258889,31.1694972 124.503158,31.2471798 124.753663,31.2978218 C127.847921,31.9928713 130.419604,29.7558416 130.422178,26.3861386 L130.422178,26.3758416 Z" id="Shape" fill="#080808"></path>
            <path d="M151.065149,30.6851485 C150.035446,32.0186139 148.871881,32.6235644 147.409703,32.6673267 C144.436436,32.749703 142.449109,30.9477228 142.366733,27.9693069 C142.302376,25.6318812 142.379604,23.2893069 142.328119,20.9518812 C142.310099,20.179604 142.75802,20.3623762 143.185347,20.3237624 C143.700198,20.2748515 143.91901,20.3881188 143.911287,20.9776238 C143.875248,23.1889109 143.862376,25.400198 143.911287,27.6114851 C143.965347,29.9849505 145.314257,31.3287129 147.530693,31.3209901 C149.538614,31.3209901 150.923564,30.1342574 151.021386,28.1289109 C151.132079,25.8249505 151.098614,23.5158416 151.085743,21.2093069 C151.085743,20.6043564 151.139802,20.2954455 151.891485,20.2980038 C152.643168,20.3005941 152.702376,20.5889109 152.699802,21.2015842 C152.674059,24.630495 152.684356,28.0619802 152.699802,31.4986139 C152.699802,32.0546535 152.792475,32.510297 151.909505,32.5077228 C151.026535,32.5051485 151.062574,32.1009901 151.103762,31.5166337 C151.108911,31.3184158 151.083168,31.1279208 151.065149,30.6851485 Z" id="Path" fill="#0E0E0E"></path>
            <path d="M136.178218,21.9635644 C136.885869,20.9529856 137.994662,20.2963401 139.22099,20.1615842 C139.537624,20.1178218 140.034455,19.9865347 139.903168,20.5863366 C139.818218,20.9827723 140.358812,21.6906931 139.406337,21.7370297 C138.762179,21.7345457 138.12795,21.8957602 137.563168,22.2055446 C136.466535,22.8722772 136.216832,23.9586139 136.196238,25.1041584 C136.157624,27.3128713 136.144752,29.5241584 136.196238,31.7328713 C136.214257,32.4510891 135.902772,32.4588119 135.35703,32.4768317 C134.811287,32.4948515 134.600198,32.3661386 134.605347,31.7483168 C134.63967,28.1958416 134.63967,24.6416502 134.605347,21.0857426 C134.605347,20.4215842 134.831881,20.3314851 135.418812,20.3134653 C136.085545,20.290297 136.25802,20.5348515 136.191089,21.1320792 C136.170146,21.4087328 136.165847,21.6863951 136.178218,21.9635644 Z" id="Path" fill="#040404"></path>
            <path d="M37.2572277,26.9833663 C37.2572277,29.7429703 37.2572277,32.5025743 37.2572277,35.2621782 C37.2572277,36.1477228 36.9740594,36.850495 36.1631683,37.2417822 C34.9532673,37.8261386 33.7253465,36.9354455 33.720198,35.4681188 C33.720198,31.2617822 33.699604,27.0580198 33.720198,22.8542574 C33.720198,22.0510891 33.5374257,21.9687129 32.7960396,22.200396 C28.0739956,23.7095158 22.9980847,23.7032148 18.279802,22.1823762 C17.4122772,21.909505 17.250099,22.0768317 17.2681188,22.9263366 C17.329901,27.0013861 17.3376238,31.0764356 17.3736634,35.1514851 C17.3736634,35.779604 17.3170297,36.3665347 16.8588119,36.8453465 C16.424709,37.342428 15.7355509,37.5319465 15.1083168,37.3267327 C14.4581574,37.171936 13.9914454,36.6019785 13.9679208,35.9340594 C13.9370297,35.519604 13.9344554,35.1025743 13.9344554,34.6855446 C13.9087129,29.4855446 13.8838284,24.2872607 13.859802,19.0906931 C13.859802,18.2514851 13.9833663,17.4663366 14.82,17.0312871 C15.6566337,16.5962376 16.3130693,16.9514851 17.0261386,17.4508911 C20.5837624,19.940198 24.5635644,20.370099 28.7312871,19.659604 C30.7424752,19.3377893 32.6419055,18.5203353 34.2582178,17.2809901 C34.8371237,16.7893214 35.6489458,16.678801 36.3382178,16.9978218 C37.0744554,17.3144554 37.1362376,18.0120792 37.1362376,18.7122772 C37.1362376,21.4718812 37.1362376,24.2314851 37.1362376,26.9910891 L37.2572277,26.9833663 Z" id="Path" fill="#FEFBF9"></path>
        </g>
    </g>
</svg>